<svg xmlns="http://www.w3.org/2000/svg" width="66" height="66" viewBox="0 0 66 66">
  <g id="Group_18243" data-name="Group 18243" transform="translate(-1386 -2827)">
    <circle id="Ellipse_70" data-name="Ellipse 70" cx="33" cy="33" r="33" transform="translate(1386 2827)" fill="#ff694e" opacity="0.1"/>
    <g id="Group_18230" data-name="Group 18230" transform="translate(1164.783 2841.371)">
      <path id="Path_11843" data-name="Path 11843" d="M241.217,31.261V22.155a1.729,1.729,0,0,1,1.934-1.325c1.489.035,2.981.019,4.471,0a1.777,1.777,0,0,1,1.571.739,1.836,1.836,0,0,1,.175-.257c.592-.6,1.18-1.2,1.789-1.782a.5.5,0,0,0,.154-.569q-1.243-4.587-2.465-9.179c-.13-.487,0-.7.483-.832q1.61-.43,3.222-.858c.538-.144,1.074-.291,1.615-.437,0-.458.016-.888-.005-1.316a.694.694,0,0,1,.374-.715H267.8a.68.68,0,0,1,.372.637q-.008,12.837,0,25.675c0,.446-.193.634-.647.634H251.812a2.7,2.7,0,0,1-1.85-.694c-.183-.161-.368-.319-.565-.489-.046.1-.079.183-.117.261a1.5,1.5,0,0,1-1.394.915c-1.71.016-3.419.011-5.129,0a1.549,1.549,0,0,1-1.442-1.042C241.282,31.441,241.25,31.351,241.217,31.261Zm23.925-3.8a1.839,1.839,0,0,1-1.774,2.6,1.87,1.87,0,0,1,0,1.438h3.727V6.7H255.232V21.4h1.015V11.227c0-.1,0-.211.007-.315a.51.51,0,0,1,.488-.494,1.41,1.41,0,0,0,1.444-1.4.536.536,0,0,1,.609-.544q2.368,0,4.736,0a.536.536,0,0,1,.61.542,1.409,1.409,0,0,0,1.444,1.4.492.492,0,0,1,.486.493c.012.727.019,1.456-.011,2.182a.628.628,0,0,1-.294.419c-.339.2-.718-.07-.733-.5-.014-.447-.011-.9,0-1.342a.279.279,0,0,0-.235-.331,2.282,2.282,0,0,1-1.321-1.025,7.867,7.867,0,0,1-.367-.775h-3.922a2.461,2.461,0,0,1-1.641,1.793.3.3,0,0,0-.252.347q.01,4.723.005,9.446c0,.092.009.184.013.273h2.772a2.532,2.532,0,0,1,.956-4.815,2.522,2.522,0,0,1,2.461,1.593,2.448,2.448,0,0,1,0,1.846,2.728,2.728,0,0,1-1.241,1.376,2.463,2.463,0,0,1,2,.543,1.8,1.8,0,0,1,.385,1.994l.383.029v-.329q0-2.71,0-5.42c0-.5.185-.751.538-.744s.513.251.513.739c0,2.053,0,4.1.006,6.157a1.082,1.082,0,0,0,.126.491,1.8,1.8,0,0,1-.841,2.506C265.3,27.4,265.229,27.428,265.142,27.465Zm-13.408-6.978c-.036.013-.056.013-.067.024-.72.718-1.442,1.435-2.157,2.159a.36.36,0,0,0-.079.234q-.006,3.474,0,6.947a.431.431,0,0,0,.132.284c.362.332.737.649,1.107.972a1.636,1.636,0,0,0,1.106.417h9.867a.74.74,0,1,0-.008-1.472c-.622,0-1.245,0-1.868,0-.684,0-1.368,0-2.053,0a.527.527,0,0,1-.546-.522.536.536,0,0,1,.544-.526c.079,0,.158,0,.237,0q2.737,0,5.473,0a.759.759,0,0,0,.78-.467.74.74,0,0,0-.755-1c-1.85,0-3.7,0-5.552,0a2.015,2.015,0,0,1-.263-.006.523.523,0,0,1,.005-1.04,2.15,2.15,0,0,1,.263-.005h6.526a2.589,2.589,0,0,0,.289-.006.735.735,0,0,0,.056-1.454,1.817,1.817,0,0,0-.315-.013h-6.579c-.453,0-.705-.184-.71-.519s.251-.533.7-.533h1.158c1.307,0,2.614,0,3.921,0a.744.744,0,0,0,.791-.738.752.752,0,0,0-.8-.734c-.079,0-.157,0-.237,0h-9.921c-.415,0-.569-.12-.671-.516ZM244.8,21.892h-1.841c-.507,0-.685.175-.685.676q0,4.144,0,8.287c0,.485.183.667.667.668h4.736c.536,0,.7-.169.7-.711V22.6a1.733,1.733,0,0,0-.005-.237.473.473,0,0,0-.435-.459c-.688-.024-1.378-.008-2.086-.008v5.307c0,.255.008.509,0,.763a.511.511,0,0,1-.531.5.517.517,0,0,1-.515-.5c-.007-.079,0-.158,0-.237V21.892Zm9.312-.481c-.029-.116-.05-.208-.075-.3q-.962-3.564-1.923-7.127c-.132-.489-.04-.663.435-.841a1.425,1.425,0,0,0,.931-1.516c-.073-.643-.047-.681.548-.895.056-.02.132-.1.133-.149.009-.6.006-1.2.006-1.833l-4.213,1.131,3.113,11.529Zm8.523-2.309a1.468,1.468,0,1,0-1.473,1.469A1.479,1.479,0,0,0,262.632,19.1Zm-8.512-1.715.023-.011V13.215a4.563,4.563,0,0,1-.638.586c-.257.16-.328.322-.195.583a.4.4,0,0,1,.018.077Z" transform="translate(0)" fill="#ff694e"/>
      <path id="Path_11844" data-name="Path 11844" d="M241.217,31.261c.033.09.065.18.1.27a1.549,1.549,0,0,0,1.442,1.042c1.71.008,3.42.013,5.129,0a1.5,1.5,0,0,0,1.394-.915c.038-.078.071-.158.117-.261.2.17.382.328.565.489a2.7,2.7,0,0,0,1.85.694h15.705c.454,0,.647-.189.647-.634q0-12.838,0-25.675a.68.68,0,0,0-.372-.637h.421v27h-27Z" transform="translate(0)" fill="#ff694e"/>
      <path id="Path_11845" data-name="Path 11845" d="M277.7,20.263a.519.519,0,0,1-.524.513.525.525,0,1,1,.023-1.049A.52.52,0,0,1,277.7,20.263Z" transform="translate(-11.622 -4.623)" fill="#ff694e"/>
      <path id="Path_11846" data-name="Path 11846" d="M247.059,41.029a.524.524,0,1,1-.513.522A.53.53,0,0,1,247.059,41.029Z" transform="translate(-1.748 -11.609)" fill="#ff694e"/>
    </g>
  </g>
</svg>
