<svg width="22" height="22" viewBox="0 0 22 22" fill="none" xmlns="http://www.w3.org/2000/svg">
<path d="M11 0C8.82438 0 6.69773 0.645138 4.88879 1.85383C3.07986 3.06253 1.66994 4.78047 0.837376 6.79046C0.00481269 8.80044 -0.213087 11.0122 0.211351 13.146C0.635788 15.2798 1.6835 17.2398 3.22188 18.7782C4.76026 20.3166 6.72028 21.3642 8.85406 21.7886C10.9879 22.2131 13.1995 21.9953 15.2095 21.1627C17.2195 20.3301 18.9374 18.9202 20.1461 17.1113C21.3548 15.3023 22 13.1756 22 11C22 8.0826 20.8411 5.28472 18.7782 3.22182C16.7153 1.15891 13.9174 0 11 0ZM17.1309 7.2348C17.1282 7.30594 17.1041 7.37458 17.0618 7.43188C16.7828 7.80646 16.4507 8.13849 16.0762 8.41755C16.017 8.41755 15.9283 8.49643 15.9283 8.57529C15.9775 9.56019 15.8284 10.545 15.4897 11.4712C15.1511 12.3973 14.6299 13.246 13.957 13.9668C13.0323 14.8359 11.8947 15.4456 10.6591 15.7346C9.4235 16.0236 8.13352 15.9817 6.91932 15.6129C6.44354 15.4848 5.984 15.3029 5.54935 15.0708L5.12546 14.8244C5.12546 14.8244 5.06632 14.7653 5.12546 14.7456H5.29307C5.98048 14.809 6.67338 14.7215 7.32347 14.4893C7.82445 14.3656 8.28787 14.1221 8.67383 13.7796H8.40768C7.96514 13.6983 7.55118 13.504 7.2058 13.2156C6.86042 12.9272 6.59534 12.5544 6.43635 12.1335C6.43635 12.0744 6.43642 12.035 6.50542 12.0547C6.81234 12.1034 7.12496 12.1034 7.43188 12.0547C7.32417 12.0307 7.21872 11.9977 7.11652 11.956C6.70682 11.7929 6.34718 11.525 6.07383 11.179C5.80047 10.833 5.62294 10.421 5.5591 9.98472C5.55421 9.8895 5.55421 9.79418 5.5591 9.69896C5.5591 9.63982 5.55919 9.62006 5.65776 9.64963C5.96279 9.80962 6.29932 9.9005 6.64342 9.91577C6.53583 9.83764 6.43667 9.74843 6.34768 9.64963C5.96707 9.26888 5.71928 8.77562 5.64116 8.24296C5.56303 7.71031 5.6588 7.16664 5.91404 6.69264C5.91404 6.62364 5.99279 6.62364 6.05193 6.69264C7.32432 8.1166 9.08111 9.01608 10.9802 9.21593C11.0394 9.21593 11.0394 9.21593 10.9802 9.15679C10.9112 8.81526 10.9112 8.46339 10.9802 8.12186C11.0683 7.76043 11.2368 7.42352 11.4731 7.1362C11.6951 6.86113 11.97 6.63326 12.2814 6.46595C12.5861 6.30227 12.922 6.20489 13.267 6.18013C13.6331 6.15692 13.9998 6.2141 14.3414 6.34768C14.5945 6.45177 14.8279 6.59845 15.0314 6.78137C15.0813 6.81629 15.1246 6.85966 15.1596 6.90951C15.175 6.9166 15.1918 6.92028 15.2088 6.92028C15.2258 6.92028 15.2426 6.9166 15.2581 6.90951C15.758 6.78779 16.2412 6.60577 16.6971 6.36741C16.7072 6.36019 16.7193 6.35628 16.7317 6.35628C16.744 6.35628 16.756 6.36019 16.7661 6.36741C16.7661 6.36741 16.7661 6.36741 16.7661 6.42655C16.6832 6.69795 16.5458 6.94953 16.362 7.16579C16.2438 7.30379 15.9579 7.6586 15.7608 7.68816C16.1817 7.62781 16.5927 7.51182 16.983 7.34321L17.1309 7.2348Z" fill="#DCE4FF"/>
</svg>
