<svg xmlns="http://www.w3.org/2000/svg" width="66" height="66" viewBox="0 0 66 66">
  <g id="Group_18236" data-name="Group 18236" transform="translate(-802 -2825)">
    <circle id="Ellipse_70" data-name="Ellipse 70" cx="33" cy="33" r="33" transform="translate(802 2825)" fill="#ff694e" opacity="0.1"/>
    <g id="Group_18226" data-name="Group 18226" transform="translate(379.413 2594.286)">
      <path id="Path_11834" data-name="Path 11834" d="M460.829,280.775a.633.633,0,0,1-.4-.687c.019-.517,0-1.036,0-1.568-.417-.021-.8-.016-1.184-.064a2.761,2.761,0,0,1-2.412-2.706q-.016-1.064,0-2.129a.363.363,0,0,0-.241-.4,1.7,1.7,0,0,1-1.029-1.613c-.007-.377-.011-.754,0-1.13a.422.422,0,0,0-.227-.427,10.581,10.581,0,0,1-5-7.247,10.335,10.335,0,0,1,.291-5.092.463.463,0,0,1,.629-.368.476.476,0,0,1,.326.653c-.016.064-.035.128-.052.192a9.762,9.762,0,0,0,4.575,11.149.779.779,0,0,1,.457.8c-.026.453-.009.909-.005,1.363a.789.789,0,0,0,.874.891c.984,0,1.968,0,2.971,0V251.069c-.57.09-1.139.141-1.69.273a9.626,9.626,0,0,0-5.819,3.972c-.051.072-.1.148-.153.218a.5.5,0,1,1-.81-.579,21.32,21.32,0,0,1,1.746-2.039,10.5,10.5,0,0,1,6.745-2.827v-.876c0-.4,0-.8,0-1.2s.179-.606.5-.608.5.205.5.6q0,3.609,0,7.218v.3l.056.026c.044-.089.093-.176.133-.267q.868-1.976,1.734-3.953c.224-.511.419-.586.937-.361q1.065.463,2.126.93c.285-.505.284-.5-.046-.928-.184-.236-.37-.471-.55-.71a.5.5,0,0,1,.031-.694q.556-.618,1.119-1.23a.509.509,0,0,1,.692-.09c.324.193.641.4.962.592a.738.738,0,0,0,.947-.436c.058-.372.1-.746.149-1.12a.511.511,0,0,1,.532-.488c.542-.033,1.085-.056,1.628-.081a.515.515,0,0,1,.576.438c.091.376.174.755.268,1.131a.819.819,0,0,0,.929.334c.3-.224.6-.46.9-.687a.525.525,0,0,1,.8.036q.562.495,1.115,1a.543.543,0,0,1,.111.843c-.173.284-.353.563-.529.845a.708.708,0,0,0,.468.971c.352.046.7.1,1.055.132a.518.518,0,0,1,.513.544q.048.8.085,1.594a.533.533,0,0,1-.459.6c-.366.086-.734.168-1.1.258a.726.726,0,0,0-.33.96c.215.282.438.558.653.84a.521.521,0,0,1-.021.8q-.508.572-1.029,1.132a.542.542,0,0,1-.822.1,2.843,2.843,0,0,1-.449-.284.927.927,0,0,0-1.394.02,10.6,10.6,0,0,1,.387,1.043,1.132,1.132,0,0,1-.013.658c-.254.658-.554,1.3-.861,2h5.549c.58,0,.735.151.736.724,0,2.716,0,5.433,0,8.149a.951.951,0,0,1-.288.711q-.924.957-1.824,1.937a.866.866,0,0,1-.7.3c-1.208-.012-2.417,0-3.626,0a.423.423,0,0,0-.226.056c.2.04.4.077.606.12a.5.5,0,0,1,.441.536q0,.665.005,1.331a.512.512,0,0,1-.468.551c-.228.045-.458.08-.687.123-.472.089-.616.428-.347.816.139.2.28.4.418.6a.5.5,0,0,1-.05.693q-.477.487-.964.964a.5.5,0,0,1-.667.058c-.205-.131-.4-.277-.6-.416-.417-.289-.763-.145-.843.349a2.4,2.4,0,0,1-.1.553,4.428,4.428,0,0,1-.363.594h-1.73a4.756,4.756,0,0,1-.355-.6,2.512,2.512,0,0,1-.11-.552c-.087-.509-.436-.65-.867-.349-.191.133-.382.266-.575.4a.487.487,0,0,1-.666-.049q-.5-.484-.988-.986a.486.486,0,0,1-.052-.666c.13-.193.264-.383.4-.574.307-.443.16-.784-.375-.876-.218-.038-.435-.083-.653-.12a.514.514,0,0,1-.469-.55q-.011-.665,0-1.33a.5.5,0,0,1,.451-.531c.228-.044.457-.083.686-.124.515-.092.647-.425.343-.862-.126-.182-.255-.363-.38-.546a.526.526,0,0,1,.072-.746q.449-.444.893-.894a.527.527,0,0,1,.747-.066c.237.164.47.333.71.493a.6.6,0,0,0,.639-.166.486.486,0,0,0-.156-.712q-2.127-.934-4.256-1.866c-.189-.083-.379-.161-.611-.259v.444q0,5.686.006,11.371a.713.713,0,0,1-.35.718Zm3.355-28.761a1.579,1.579,0,0,0-.087.143q-1.294,2.949-2.583,5.9a.993.993,0,0,0-.071.386c0,2.8,0,5.608-.008,8.412a.363.363,0,0,0,.253.4c1.767.764,3.529,1.541,5.292,2.313.087.038.18.063.317.11v-.4c0-1.4,0-2.793,0-4.189a1.131,1.131,0,0,1,.344-.863,12.027,12.027,0,0,0,1.225-1.311,1.966,1.966,0,0,1,2.079-.884.765.765,0,0,0,.985-.626,15.774,15.774,0,0,1,.621-1.459c-.91-.4-1.778-.79-2.649-1.173s-.9-.442-.52-1.3c.388-.878.775-1.757,1.171-2.655Zm7.926,20.822c1.22,0,2.4,0,3.587,0,.22,0,.216-.129.216-.282,0-.72-.005-1.441,0-2.161a.469.469,0,0,1,.471-.528.487.487,0,0,1,.527.514c.013.254,0,.509,0,.764,0,.277,0,.553,0,.918.351-.371.639-.649.891-.956a.853.853,0,0,0,.2-.491c.013-2.15.009-4.3.008-6.449,0-.091-.016-.181-.03-.334-.32.34-.608.615-.856.924a.938.938,0,0,0-.2.521c-.022.8,0,1.6-.014,2.393a.477.477,0,0,1-.5.535c-.319,0-.49-.172-.5-.531-.009-.41,0-.82,0-1.23q0-.575,0-1.152h-7.561v4.339c.553.07.642.155.733.67q.043.245.091.49c.1.522.429.656.862.358.183-.125.366-.249.548-.377a.526.526,0,0,1,.746.067c.181.179.361.36.541.54C472.506,272.013,472.506,272.013,472.109,272.836Zm-1.438-25.017c-.046.367-.1.74-.139,1.114a.641.641,0,0,1-.457.586,6.5,6.5,0,0,0-.9.426.615.615,0,0,1-.685-.009c-.336-.213-.676-.418-1.031-.637l-.594.657c.253.327.491.645.74.954a.587.587,0,0,1,.071.679c-.108.227-.195.464-.3.725l1.142.5c.882-1.8,1.8-2.422,3.306-2.246a2.923,2.923,0,0,1,2.426,2.212,2.814,2.814,0,0,1-.137,1.728,3,3,0,0,1-1.723,1.668l.459,1.164c.286-.147.547-.264.79-.411a.589.589,0,0,1,.682,0c.335.214.677.418,1.034.638l.6-.654c-.252-.326-.491-.643-.741-.953a.6.6,0,0,1-.078-.679,7.951,7.951,0,0,0,.335-.934.626.626,0,0,1,.512-.5c.325-.066.65-.137.968-.229a.3.3,0,0,0,.178-.21,6.837,6.837,0,0,0,.008-.7c-.426-.055-.8-.114-1.171-.148a.655.655,0,0,1-.614-.468,5.088,5.088,0,0,0-.4-.836.638.638,0,0,1,.009-.768c.215-.316.408-.648.617-.984l-.662-.588-.48.368c-.158.121-.321.237-.474.364a.591.591,0,0,1-.676.088,7.358,7.358,0,0,0-.966-.345.589.589,0,0,1-.476-.487c-.025-.13-.064-.258-.094-.387-.188-.809-.188-.809-1.006-.739A.56.56,0,0,0,470.672,247.82Zm1.73,27.12c-.645-.132-1.4-.06-1.5-.969-.584-.721,0-1.213.369-1.761l-.4-.413c-.274.189-.521.356-.764.528a.562.562,0,0,1-.623.037,7.182,7.182,0,0,0-.764-.317.613.613,0,0,1-.438-.529c-.044-.281-.1-.559-.156-.843h-.573c-.108.644-.143,1.207-.953,1.546s-1.233-.087-1.755-.428l-.422.38c.371.557.98,1.045.392,1.77-.1.914-.866.852-1.482.964-.072.563-.072.563.424.658.141.027.282.059.424.077a.584.584,0,0,1,.517.446,5.632,5.632,0,0,0,.308.733.581.581,0,0,1-.037.653c-.173.241-.336.489-.513.748l.392.407c.261-.179.5-.337.733-.505a.594.594,0,0,1,.682-.05,5.567,5.567,0,0,0,.733.306.569.569,0,0,1,.434.489c.02.153.057.3.087.457.1.49.1.49.65.418.045-.251.1-.509.135-.771a.648.648,0,0,1,.553-.614,2.057,2.057,0,0,0,.579-.243.635.635,0,0,1,.795.059c.215.167.447.313.615.429l.47-.345c-.411-.572-.966-1.07-.392-1.79.075-.951.9-.788,1.479-.962Zm-11.992,2.572v-4.1h-2.571c0,.127,0,.235,0,.343,0,.72-.031,1.444.024,2.16a1.7,1.7,0,0,0,1.372,1.522A10.6,10.6,0,0,0,460.409,277.512Zm8.626-13.3a.774.774,0,0,0,.142.04q3.421,0,6.842,0a.34.34,0,0,0,.218-.048c.361-.365.712-.741,1.09-1.14a.868.868,0,0,0-.146-.038q-3.421,0-6.842,0a.339.339,0,0,0-.217.048C469.762,263.439,469.411,263.815,469.035,264.211Zm2.992-9a1.868,1.868,0,0,0,1.283-1.954,1.89,1.89,0,0,0-1.753-1.7,1.917,1.917,0,0,0-2,1.406c-.051.205-.012.323.2.4.351.133.679.333,1.035.441a1.485,1.485,0,0,1,1.131,1.161A1.3,1.3,0,0,0,472.028,255.208Zm-.841.652-.875,1.989,1.992.878Z" transform="translate(-6.978 0)" fill="#ff694e"/>
      <path id="Path_11835" data-name="Path 11835" d="M450.3,306.31c-.124-.107-.312-.2-.377-.345a.543.543,0,0,1,.041-.483c.581-.621,1.186-1.221,1.8-1.813a.425.425,0,0,1,.627.028.433.433,0,0,1,.073.65c-.593.625-1.211,1.226-1.828,1.828C450.569,306.238,450.456,306.25,450.3,306.31Z" transform="translate(-6.812 -34.265)" fill="#ff694e"/>
      <path id="Path_11836" data-name="Path 11836" d="M440.248,282.232c-.376,0-.752.005-1.128,0-.345-.006-.533-.187-.533-.5a.477.477,0,0,1,.533-.5q1.161-.011,2.322,0a.5.5,0,1,1,0,1C441.044,282.237,440.645,282.232,440.248,282.232Z" transform="translate(0 -20.809)" fill="#ff694e"/>
      <path id="Path_11837" data-name="Path 11837" d="M449.877,254.277a2.1,2.1,0,0,1,.385.229q.842.823,1.668,1.663a.5.5,0,0,1,0,.763.476.476,0,0,1-.706-.062c-.552-.543-1.1-1.094-1.643-1.641-.162-.162-.264-.358-.124-.562A2.486,2.486,0,0,1,449.877,254.277Z" transform="translate(-6.511 -4.56)" fill="#ff694e"/>
      <path id="Path_11838" data-name="Path 11838" d="M493.578,315.019a2.266,2.266,0,0,1-2.25,2.277,2.3,2.3,0,0,1-2.3-2.3,2.259,2.259,0,0,1,2.265-2.258A2.3,2.3,0,0,1,493.578,315.019Zm-3.544,0a1.272,1.272,0,0,0,1.3,1.268,1.255,1.255,0,0,0,1.241-1.257,1.3,1.3,0,0,0-1.293-1.29A1.254,1.254,0,0,0,490.034,315.017Z" transform="translate(-30.412 -39.807)" fill="#ff694e"/>
    </g>
  </g>
</svg>
