<svg xmlns="http://www.w3.org/2000/svg" width="66" height="66" viewBox="0 0 66 66">
  <g id="Group_19331" data-name="Group 19331" transform="translate(-837 -2619)">
    <circle id="Ellipse_70" data-name="Ellipse 70" cx="33" cy="33" r="33" transform="translate(837 2619)" fill="#ff694e" opacity="0.1"/>
    <g id="Group_18242" data-name="Group 18242" transform="translate(-233 -189)">
      <path id="Path_11839" data-name="Path 11839" d="M349.92,191.344c.06-.293.114-.588.184-.879a6.7,6.7,0,0,1,9.075-4.655.394.394,0,0,0,.551-.124,9.651,9.651,0,0,1,14.678.033.337.337,0,0,0,.469.115,6.7,6.7,0,0,1,9.225,5.1,6.875,6.875,0,0,1,.082,1,.742.742,0,1,1-1.479.028,5.235,5.235,0,0,0-7.062-4.834.52.52,0,0,0-.094.045c.3.843.659,1.649.88,2.491a13.376,13.376,0,0,1,.3,2.178.755.755,0,0,1-.715.906c-.443.015-.763-.32-.772-.861a8.1,8.1,0,0,0-1.084-3.953,8.188,8.188,0,0,0-15.189,2.725c-.079.482-.075.977-.136,1.463a.717.717,0,0,1-.714.627.743.743,0,0,1-.732-.611,1.5,1.5,0,0,1-.02-.332,9.621,9.621,0,0,1,1.1-4.266c.052-.1.1-.2.168-.327a4.254,4.254,0,0,0-1.735-.411,5.2,5.2,0,0,0-5.488,5.1.791.791,0,0,1-.456.785.683.683,0,0,1-.776-.127,2.136,2.136,0,0,1-.258-.339Z" transform="translate(736.08 2659.603)" fill="#ff694e"/>
      <path id="Path_11840" data-name="Path 11840" d="M369.157,168.3a5.217,5.217,0,1,1-5.22,5.212A5.227,5.227,0,0,1,369.157,168.3Zm-.076,8.939a3.725,3.725,0,1,0-3.652-3.8A3.74,3.74,0,0,0,369.081,177.236Z" transform="translate(733.981 2661.703)" fill="#ff694e"/>
      <path id="Path_11841" data-name="Path 11841" d="M385.4,179.033a3.724,3.724,0,1,1-3.718-3.727A3.713,3.713,0,0,1,385.4,179.033Zm-1.491,0a2.231,2.231,0,1,0-2.231,2.228A2.233,2.233,0,0,0,383.911,179.034Z" transform="translate(731.881 2660.653)" fill="#ff694e"/>
      <path id="Path_11842" data-name="Path 11842" d="M360.991,179.014a3.722,3.722,0,1,1-3.734-3.709A3.71,3.71,0,0,1,360.991,179.014Zm-1.488.025a2.233,2.233,0,1,0-2.236,2.223A2.236,2.236,0,0,0,359.5,179.038Z" transform="translate(735.537 2660.654)" fill="#ff694e"/>
    </g>
  </g>
</svg>
